<svg version="1.1" id="Layer_1" xmlns="http://www.w3.org/2000/svg" xmlns:xlink="http://www.w3.org/1999/xlink" x="0px" y="0px"
	 width="100%" viewBox="0 0 259 194" enable-background="new 0 0 259 194" xml:space="preserve">
<path fill="#000000" opacity="1.000000" stroke="none" 
	d="
M157.000000,195.000000 
	C104.666672,195.000000 52.833340,195.000000 1.000007,195.000000 
	C1.000005,130.333344 1.000005,65.666679 1.000002,1.000016 
	C87.333321,1.000010 173.666641,1.000010 260.000000,1.000005 
	C260.000000,65.666649 260.000000,130.333298 260.000000,194.999969 
	C225.833328,195.000000 191.666672,195.000000 157.000000,195.000000 
M154.902512,23.504913 
	C154.699020,23.175034 154.410980,23.063377 153.398148,23.060366 
	C152.966156,23.030054 152.534180,22.999743 151.588440,22.313749 
	C149.534241,22.313749 147.480042,22.313749 145.293365,22.313749 
	C145.293365,27.579716 145.293365,32.575695 145.293365,37.763218 
	C147.044205,37.763218 148.486816,37.763218 150.532806,37.868908 
	C151.027313,37.605408 151.521820,37.341908 152.624496,36.996792 
	C153.120972,36.724941 153.617432,36.453087 154.101501,36.234016 
	C154.101501,36.234016 154.152863,36.251381 154.774490,36.299011 
	C155.204926,35.879936 155.635361,35.460865 156.004105,35.001724 
	C156.004105,35.001724 156.042160,35.064655 156.575745,34.759445 
	C156.743408,34.178322 156.911087,33.597195 157.009583,33.005150 
	C157.009583,33.005150 157.043533,33.066395 157.659225,32.614990 
	C157.117645,30.372408 156.576065,28.129826 155.971466,25.430525 
	C155.971466,25.430525 155.837936,24.989239 155.820145,24.490723 
	C155.643661,24.181431 155.381073,23.990583 155.010513,23.987438 
	C155.010513,23.987438 155.080566,23.968260 154.902512,23.504913 
M81.441658,168.143509 
	C81.605385,168.986557 81.769112,169.829620 82.767570,170.942413 
	C88.837311,170.238983 94.907051,169.535553 101.668991,168.946960 
	C102.120758,168.846863 102.572525,168.746780 103.883545,168.757736 
	C108.256813,168.498611 112.630074,168.239471 117.002548,168.662231 
	C117.000160,169.116837 116.997780,169.571457 116.189713,170.013000 
	C114.619980,170.138596 113.050247,170.264206 111.480515,170.389816 
	C111.533684,170.813522 111.586853,171.237244 111.640015,171.660965 
	C113.419334,171.433929 115.198647,171.206909 117.752930,170.991928 
	C120.718544,172.393036 125.184731,169.314987 126.996536,174.430954 
	C128.524078,178.744278 132.978195,179.323898 136.404663,176.131378 
	C138.532944,174.148422 140.903336,172.425339 143.466797,170.340210 
	C143.409821,170.068985 143.207886,169.107483 143.861115,168.023224 
	C152.232758,168.372925 160.604385,168.722626 169.710831,169.436661 
	C173.924347,169.657639 178.137863,169.878632 183.339569,170.151459 
	C182.819550,166.410812 182.411240,163.473679 182.002930,160.536545 
	C180.316849,160.981216 178.630783,161.425888 176.081024,161.966782 
	C174.056107,162.021255 172.031189,162.075745 169.354980,161.872223 
	C167.930099,161.234222 166.505234,160.596222 164.907608,159.458206 
	C164.605026,159.379669 164.302444,159.301132 163.544479,159.054764 
	C163.544479,159.054764 163.066330,158.971588 162.875717,158.436935 
	C162.554214,158.245972 162.232727,158.055008 161.943665,156.946686 
	C161.943665,152.148544 161.943665,147.350418 161.943665,142.474060 
	C169.054901,141.248276 176.076874,139.710037 176.799164,131.510529 
	C177.747375,120.746483 170.013855,116.812378 160.907974,114.516113 
	C160.907974,110.591248 160.975082,106.939339 160.886627,103.291199 
	C160.816620,100.404243 159.688400,98.798714 156.306061,98.991386 
	C151.443130,99.268402 146.551102,99.031609 141.671494,99.019371 
	C129.451767,98.988716 117.232040,98.961006 104.744331,98.261116 
	C102.647110,98.250977 100.096619,97.457695 98.530045,98.364388 
	C91.213547,102.599022 89.245262,109.973984 92.274055,117.849617 
	C93.989517,122.310257 97.760048,126.557396 94.047638,131.994629 
	C86.138092,130.429047 81.587982,135.665436 77.071182,140.652115 
	C76.414200,141.377441 76.608246,143.799545 77.330330,144.683426 
	C80.059692,148.024368 83.169037,151.054916 86.549347,154.639801 
	C89.371048,151.983444 91.486443,149.266922 94.230774,147.563904 
	C99.465919,144.315155 99.827805,140.110046 97.964394,134.173416 
	C97.971527,131.063965 98.507126,127.835876 97.842934,124.877121 
	C97.122704,121.668732 95.353951,118.678505 93.919716,115.651283 
	C91.169388,109.846169 93.785706,102.403709 102.015991,101.464668 
	C102.054985,101.648392 102.093971,101.832123 101.777611,102.657021 
	C101.903618,105.418259 102.029633,108.179489 102.019096,111.785164 
	C101.996147,113.494789 101.973198,115.204407 101.278542,117.460251 
	C101.247574,125.622986 101.216606,133.785721 101.010208,142.869247 
	C101.343826,148.072006 101.677437,153.274750 101.390152,158.591812 
	C99.913887,159.690826 98.437614,160.789841 96.071693,161.986176 
	C93.387962,162.043503 90.704231,162.100830 87.372490,161.996429 
	C86.582977,161.715118 85.793472,161.433792 84.287651,161.009415 
	C83.909409,161.674164 83.531174,162.338898 82.996460,163.424225 
	C82.996460,163.424225 82.947990,163.870346 82.272095,164.212753 
	C82.159203,165.460648 82.046310,166.708542 82.002235,167.989838 
	C82.002235,167.989838 81.951500,167.932480 81.441658,168.143509 
M126.002075,34.002007 
	C126.002075,34.002007 125.959824,34.025425 126.413864,34.667927 
	C130.383865,35.575363 133.865311,35.233471 136.195984,30.295115 
	C136.689590,28.414595 137.545731,26.537188 137.561905,24.652569 
	C137.574829,23.148928 136.564041,21.636497 136.007660,20.127964 
	C134.676132,21.133928 133.268799,22.056551 132.039581,23.174959 
	C131.210907,23.928953 130.633667,24.959286 129.521301,26.421616 
	C129.101837,24.046562 128.853836,22.642252 128.619217,21.313858 
	C122.646606,21.031485 121.698349,22.807014 124.035950,29.743553 
	C124.681892,31.176184 125.327835,32.608814 126.002075,34.002007 
M78.998985,72.000862 
	C78.998985,72.000862 79.018486,72.011375 78.416130,72.590340 
	C78.613739,78.725632 78.811340,84.860931 79.000000,91.000305 
	C79.000000,91.000305 79.005562,90.992546 79.221779,91.442245 
	C79.428894,91.723099 79.702492,91.902702 80.607491,92.033897 
	C81.244614,92.658905 81.881729,93.283913 82.977509,94.531525 
	C84.503822,99.116714 88.186356,99.658905 92.071640,98.876167 
	C96.101341,98.064331 96.772408,94.585144 96.994865,91.107643 
	C97.379089,85.101547 97.713142,79.092239 98.800636,73.006699 
	C99.399208,73.633820 100.406998,74.191437 100.527306,74.899788 
	C101.127762,78.434998 100.989960,82.166229 102.035446,85.542519 
	C105.772621,97.611359 115.739456,99.977615 124.479416,90.965996 
	C128.188004,87.142143 130.463806,82.604073 130.123581,76.988983 
	C130.061050,75.956886 131.195557,74.852264 132.095428,73.196053 
	C133.207642,78.641548 133.647263,83.183983 135.094589,87.378738 
	C138.036713,95.905838 141.801498,99.859657 150.384491,95.009415 
	C152.570602,93.774048 154.737228,91.800385 155.906143,89.625031 
	C157.929443,85.859634 159.339462,81.728508 160.681824,77.644020 
	C161.920380,73.875298 162.732208,69.966324 164.304718,66.304115 
	C164.566147,66.600723 164.827576,66.897331 165.120926,68.106956 
	C165.081253,75.927818 164.871597,83.752754 165.059265,91.568161 
	C165.193390,97.154205 168.517929,99.509560 174.635773,99.009300 
	C178.746262,98.673180 179.785065,95.664207 179.767960,92.446465 
	C179.730392,85.382027 179.305344,78.318314 178.960800,71.258102 
	C178.901901,70.050926 178.578720,68.819695 178.171677,67.672653 
	C176.026871,61.628574 171.059097,64.700340 167.068176,63.537766 
	C165.046661,60.025322 163.025162,56.512878 160.708527,52.401546 
	C157.138351,49.599781 153.568192,46.798016 149.525803,43.462757 
	C148.351151,43.308453 147.176483,43.154152 145.574768,42.438938 
	C143.049850,41.625805 140.524918,40.812675 137.549515,39.503597 
	C135.699265,39.669270 133.849030,39.834942 131.199417,40.000771 
	C130.133514,40.000767 129.067612,40.000767 127.201965,40.000202 
	C126.135941,39.999969 125.069916,39.999737 123.205788,39.999603 
	C120.802338,40.666431 118.398880,41.333256 115.188721,42.000088 
	C113.644424,42.391762 111.954216,42.506149 110.583427,43.227528 
	C106.600601,45.323502 102.745796,47.662750 98.901619,49.078270 
	C98.232903,44.171284 97.564178,39.264297 96.741241,33.225647 
	C93.567955,35.050007 90.038795,35.900539 89.307861,37.817844 
	C88.515892,39.895260 90.332161,42.967018 91.026848,45.666908 
	C90.487236,46.482677 89.421913,48.093216 88.356583,49.703751 
	C90.502625,50.686192 92.582573,52.151226 94.821182,52.457844 
	C96.032959,52.623817 97.515419,50.813503 98.946777,50.671284 
	C98.965599,51.450787 98.984428,52.230289 98.715202,53.644230 
	C96.484100,57.094398 94.253006,60.544567 91.194817,64.067169 
	C87.025291,63.267509 84.815025,65.517921 82.950912,69.287636 
	C82.283478,69.846046 81.616043,70.404449 80.368332,71.037033 
	C79.916786,71.364410 79.465233,71.691780 78.998985,72.000862 
M168.472382,39.625870 
	C164.986923,35.364700 164.272949,35.159039 160.125076,36.671291 
	C162.199905,41.752159 164.287643,46.864655 166.749710,52.893806 
	C167.392944,52.567932 169.569992,52.200603 170.219040,51.004284 
	C172.576385,46.659199 174.421890,42.036427 176.585632,37.240959 
	C173.311661,33.828587 171.274368,36.868835 168.472382,39.625870 
M105.982971,31.876894 
	C106.835991,33.899464 107.689018,35.922035 108.542038,37.944607 
	C109.930534,36.448193 112.317833,35.051304 112.479134,33.432598 
	C112.736763,30.847269 113.641266,29.547731 115.771324,28.451336 
	C116.397751,28.128897 117.039734,26.395153 116.752182,26.025211 
	C116.057419,25.131420 114.847900,24.170372 113.793854,24.107361 
	C110.025040,23.882067 106.234566,24.019156 102.452278,24.019156 
	C102.120850,24.427399 101.789413,24.835642 101.457985,25.243885 
	C102.947136,27.179750 104.436287,29.115616 105.982971,31.876894 
z"/>
<path fill="#0C8176" opacity="1.000000" stroke="none" 
	d="
M105.012314,98.932114 
	C117.232040,98.961006 129.451767,98.988716 141.671494,99.019371 
	C146.551102,99.031609 151.443130,99.268402 156.306061,98.991386 
	C159.688400,98.798714 160.816620,100.404243 160.886627,103.291199 
	C160.975082,106.939339 160.907974,110.591248 160.907974,114.516113 
	C170.013855,116.812378 177.747375,120.746483 176.799164,131.510529 
	C176.076874,139.710037 169.054901,141.248276 161.943665,142.474060 
	C161.943665,147.350418 161.943665,152.148544 161.717285,157.524536 
	C161.490891,158.102371 161.025986,158.240952 160.787888,158.118561 
	C160.376434,157.953766 160.203064,157.911346 159.867950,157.588226 
	C158.520721,156.807938 157.335236,156.308350 156.072693,155.879578 
	C155.995651,155.950378 156.168213,155.832230 155.986755,155.581177 
	C155.205399,155.239670 154.605530,155.149231 153.841080,154.959778 
	C153.676514,154.860748 153.292465,154.854416 153.025192,154.576965 
	C148.490997,154.489319 144.224060,154.679123 139.621094,154.963684 
	C136.616882,157.997574 133.948715,160.936722 131.182098,163.534729 
	C127.351082,155.882767 123.187469,153.383743 116.307526,154.983582 
	C111.803658,156.030884 107.453583,157.739594 102.844131,159.056183 
	C102.327011,158.948959 102.112816,158.788040 102.011055,158.477509 
	C101.677437,153.274750 101.343826,148.072006 101.473846,142.305878 
	C101.941742,133.466354 101.945999,125.190193 101.950249,116.914032 
	C101.973198,115.204407 101.996147,113.494789 102.337448,111.069748 
	C102.481522,107.574829 102.307243,104.795341 102.132965,102.015846 
	C102.093971,101.832123 102.054985,101.648392 102.083839,100.888763 
	C103.105232,99.852608 104.058769,99.392357 105.012314,98.932114 
M123.943031,148.669617 
	C127.305466,146.937210 129.440262,144.416763 129.149216,140.400162 
	C128.836243,136.080963 124.363358,132.819778 119.412582,133.217575 
	C114.208641,133.635712 116.789047,137.548935 116.369751,140.065430 
	C116.182968,141.186386 116.447418,142.379745 116.482635,143.540970 
	C116.682648,150.135773 116.680138,150.135849 123.943031,148.669617 
M146.260941,124.616577 
	C153.644653,123.515175 155.935120,121.139824 155.110306,115.439247 
	C154.315720,109.947533 150.360275,107.534531 142.987396,108.541954 
	C142.987396,113.039375 142.867706,117.653511 143.097778,122.250153 
	C143.139160,123.076965 144.621613,123.831657 146.260941,124.616577 
M116.011208,123.987053 
	C126.328690,122.271126 117.447914,115.863670 118.848068,111.938774 
	C119.087540,111.267517 118.063980,109.984764 117.370697,109.211502 
	C117.038055,108.840477 116.115547,108.941597 115.458290,108.929276 
	C113.709229,108.896454 111.959160,108.918114 110.200768,108.918114 
	C110.200768,114.379463 110.200768,119.084557 110.200768,124.023079 
	C112.160614,124.023079 113.648613,124.023079 116.011208,123.987053 
M137.066956,117.633934 
	C137.119415,116.690804 137.171890,115.747681 137.225662,114.781265 
	C129.451920,114.428154 135.707306,123.123390 129.625351,125.094154 
	C129.625351,121.973923 129.832901,119.417778 129.518021,116.927681 
	C129.400421,115.997658 128.175613,115.022858 127.220749,114.487244 
	C126.901520,114.308159 125.206673,115.474190 125.238876,115.951202 
	C125.493134,119.717621 125.385155,123.691948 126.630745,127.155632 
	C127.840027,130.518356 133.148209,130.441345 134.892975,127.054924 
	C136.232071,124.455856 136.406723,121.256828 137.066956,117.633934 
M146.768677,136.184845 
	C144.532043,136.772964 142.295395,137.361069 139.661209,138.053726 
	C139.267975,135.571381 137.828598,133.504105 133.959030,135.536987 
	C135.291641,138.306290 136.960251,140.685211 137.589661,143.313034 
	C138.823898,148.466080 138.584366,148.523453 140.251846,148.554199 
	C142.691055,144.230438 144.738678,140.600769 146.768677,136.184845 
M162.907318,130.380219 
	C163.992065,130.680313 165.076797,130.980408 166.161530,131.280502 
	C166.449707,129.829086 167.422806,127.956017 166.854050,127.032166 
	C166.130432,125.856750 164.158127,125.450081 161.635590,124.151695 
	C162.317291,127.092812 162.606201,128.339279 162.907318,130.380219 
z"/>
<path fill="#000000" opacity="1.000000" stroke="none" 
	d="
M165.089005,67.193947 
	C164.827576,66.897331 164.566147,66.600723 163.638138,66.222916 
	C151.392990,60.876823 140.506683,62.016834 130.163849,70.472946 
	C128.315765,65.151314 124.748413,63.651207 119.972664,63.943569 
	C115.997192,64.186935 111.987198,64.157616 108.006905,63.959541 
	C102.633301,63.692127 98.657188,65.340500 97.036568,70.544418 
	C96.994637,69.478889 96.983452,68.768440 97.002869,67.678909 
	C99.171707,62.714828 101.309952,58.129837 103.594810,53.230450 
	C101.882065,53.148140 100.442657,53.078964 99.003250,53.009792 
	C98.984428,52.230289 98.965599,51.450787 98.930984,50.347221 
	C98.915199,50.023155 98.840775,49.906570 98.840775,49.906570 
	C102.745796,47.662750 106.600601,45.323502 110.583427,43.227528 
	C111.954216,42.506149 113.644424,42.391762 115.862259,42.242821 
	C117.052582,45.028996 117.841408,46.616764 121.072884,45.251026 
	C123.242661,44.333996 125.827232,44.036930 128.213867,44.084278 
	C131.325821,44.146008 132.335434,42.845173 131.998779,40.000610 
	C133.849030,39.834942 135.699265,39.669270 137.724487,40.077740 
	C136.322693,42.516880 135.915771,44.290974 138.937683,44.780846 
	C146.969696,46.082890 153.096680,50.531239 156.859451,54.649403 
	C158.317139,54.069393 159.660400,53.534916 161.003662,53.000435 
	C163.025162,56.512878 165.046661,60.025322 167.085205,64.240845 
	C166.431152,65.693939 165.760086,66.443947 165.089005,67.193947 
M105.710289,52.095352 
	C105.813072,52.068352 105.915848,52.041351 106.281204,51.896019 
	C106.182411,51.924198 106.083618,51.952377 105.710289,52.095352 
z"/>
<path fill="#F3F8FB" opacity="1.000000" stroke="none" 
	d="
M97.067314,70.899513 
	C98.657188,65.340500 102.633301,63.692127 108.006905,63.959541 
	C111.987198,64.157616 115.997192,64.186935 119.972664,63.943569 
	C124.748413,63.651207 128.315765,65.151314 130.163849,70.472946 
	C140.506683,62.016834 151.392990,60.876823 163.351776,66.130417 
	C162.732208,69.966324 161.920380,73.875298 160.681824,77.644020 
	C159.339462,81.728508 157.929443,85.859634 155.906143,89.625031 
	C154.737228,91.800385 152.570602,93.774048 150.384491,95.009415 
	C141.801498,99.859657 138.036713,95.905838 135.094589,87.378738 
	C133.647263,83.183983 133.207642,78.641548 132.095428,73.196053 
	C131.195557,74.852264 130.061050,75.956886 130.123581,76.988983 
	C130.463806,82.604073 128.188004,87.142143 124.479416,90.965996 
	C115.739456,99.977615 105.772621,97.611359 102.035446,85.542519 
	C100.989960,82.166229 101.127762,78.434998 100.527306,74.899788 
	C100.406998,74.191437 99.399208,73.633820 98.172005,72.858368 
	C97.384689,72.106537 97.226006,71.503021 97.067314,70.899513 
M123.676376,80.967117 
	C123.817207,80.334297 123.880203,79.671349 124.111603,79.073593 
	C125.514214,75.450378 124.892288,72.287483 121.535324,70.218040 
	C117.715546,67.863289 109.791893,68.625305 107.216393,71.290276 
	C103.796921,74.828537 106.176765,88.105431 110.550377,89.890205 
	C115.742134,92.008865 121.500298,88.209549 123.676376,80.967117 
M138.740616,81.108276 
	C139.614136,83.353516 140.188538,85.782753 141.430252,87.801498 
	C143.362656,90.943153 149.393143,91.167557 150.877930,87.924530 
	C152.781631,83.766563 154.388702,79.182213 154.688400,74.685921 
	C154.877884,71.843239 153.053635,68.686478 148.467377,68.853256 
	C138.679382,69.209198 138.563263,72.535484 138.740616,81.108276 
z"/>
<path fill="#F4F6F6" opacity="1.000000" stroke="none" 
	d="
M160.029709,157.868942 
	C160.203064,157.911346 160.376434,157.953766 160.976654,158.333878 
	C161.957794,158.771576 162.512070,158.871582 163.066330,158.971588 
	C163.066330,158.971588 163.544479,159.054764 163.900543,159.328674 
	C164.482193,159.834610 164.756775,159.953156 165.080353,159.958206 
	C166.505234,160.596222 167.930099,161.234222 169.982391,162.243469 
	C172.732727,162.719620 174.855652,162.824539 176.979858,163.242752 
	C176.956757,163.972916 176.932343,164.389816 176.618683,164.706604 
	C175.547562,164.402802 174.765701,164.199097 173.610748,163.995224 
	C172.491501,163.997086 171.745346,163.999100 170.679916,163.994766 
	C169.811707,164.287415 169.262756,164.586411 168.713806,164.885422 
	C169.476700,165.257736 170.239594,165.630051 171.184540,166.184448 
	C170.569733,167.268448 169.772873,168.170380 168.976028,169.072311 
	C160.604385,168.722626 152.232758,168.372925 143.047958,167.981262 
	C139.557190,168.179611 136.879333,168.613312 134.202042,168.609756 
	C131.081009,168.605621 127.960472,168.219193 124.833832,167.757782 
	C124.827942,167.516922 124.459915,167.206619 124.459915,167.206619 
	C124.459915,167.206619 124.031998,167.427078 123.646973,167.369415 
	C121.175751,167.534607 119.089546,167.757462 117.003342,167.980316 
	C112.630074,168.239471 108.256813,168.498611 103.524704,168.424545 
	C103.532883,167.487442 103.899902,166.883530 104.266914,166.279633 
	C103.839355,165.989471 103.411789,165.699326 102.984230,165.409164 
	C102.315086,166.550156 101.645935,167.691147 100.976791,168.832123 
	C94.907051,169.535553 88.837311,170.238983 82.373642,170.465439 
	C81.970306,169.303131 81.960907,168.617813 81.951500,167.932480 
	C81.951500,167.932480 82.002235,167.989838 82.307373,167.934708 
	C82.724342,166.543167 82.836166,165.206757 82.947998,163.870346 
	C82.947990,163.870346 82.996460,163.424225 83.367065,163.168732 
	C84.159775,162.326309 84.581871,161.739380 85.003967,161.152466 
	C85.793472,161.433792 86.582977,161.715118 87.999359,162.326706 
	C91.404602,162.400940 94.182968,162.144897 96.961349,161.888855 
	C98.437614,160.789841 99.913887,159.690826 101.700607,158.534668 
	C102.112816,158.788040 102.327011,158.948959 103.114944,159.298187 
	C109.009682,162.007660 112.756668,158.158478 117.031647,156.370010 
	C118.804802,156.825668 120.510132,156.918060 122.550293,157.064270 
	C125.124306,158.478745 128.589417,158.985703 126.728882,162.882233 
	C125.846924,162.328247 125.229256,161.909317 124.611588,161.490387 
	C125.507736,162.273911 123.462021,166.341797 127.483963,164.002441 
	C129.031143,163.958450 130.155838,163.917145 131.280548,163.875854 
	C133.948715,160.936722 136.616882,157.997574 139.852814,155.266083 
	C144.830948,157.755875 149.166718,158.487854 153.292465,154.854416 
	C153.292465,154.854416 153.676514,154.860748 154.042419,155.191681 
	C154.994949,155.625839 155.581573,155.729034 156.168213,155.832230 
	C156.168213,155.832230 155.995651,155.950378 156.040863,156.214905 
	C156.062149,157.982269 156.038193,159.485107 155.671188,160.999664 
	C154.715027,161.330750 154.101898,161.650116 153.488785,161.969482 
	C153.782196,162.252151 154.075592,162.534836 154.369003,162.817505 
	C154.917007,162.206940 155.465012,161.596375 156.364365,160.955719 
	C157.820358,159.906723 158.925034,158.887833 160.029709,157.868942 
M158.370911,163.953537 
	C158.212265,163.942917 158.053635,163.932281 157.637466,164.091934 
	C157.788345,164.101151 157.939224,164.110382 158.370911,163.953537 
M110.080620,164.443893 
	C111.012009,163.711090 111.943398,162.978287 112.874779,162.245499 
	C112.376709,161.871872 111.878639,161.498245 111.380569,161.124619 
	C110.750595,162.310440 110.120628,163.496262 110.080620,164.443893 
M141.922943,161.501740 
	C142.322983,160.966995 142.723022,160.432236 143.123047,159.897476 
	C142.536041,159.896469 141.949051,159.895477 141.362045,159.894485 
	C141.371613,160.494675 141.381195,161.094864 141.922943,161.501740 
M163.317856,162.920532 
	C164.265915,163.561279 165.213974,164.202026 166.162033,164.842758 
	C166.357697,164.456528 166.553375,164.070297 166.749054,163.684067 
	C165.761749,163.302353 164.774445,162.920639 163.317856,162.920532 
M122.716614,160.629791 
	C122.447227,160.503464 122.177841,160.377151 121.908455,160.250824 
	C121.830772,160.507370 121.753090,160.763901 121.675407,161.020447 
	C122.042976,161.047531 122.410538,161.074615 122.716614,160.629791 
M147.558289,160.931808 
	C147.808533,160.781616 148.058777,160.631439 148.309021,160.481262 
	C148.052643,160.343369 147.723312,160.037247 147.557877,160.109009 
	C147.337585,160.204559 147.244858,160.594223 147.558289,160.931808 
M96.219788,165.190750 
	C96.402374,165.129715 96.584969,165.068680 96.767563,165.007660 
	C96.583321,164.948746 96.399078,164.889832 96.219788,165.190750 
M101.798340,163.232590 
	C101.656296,163.045868 101.514252,162.859161 101.372208,162.672455 
	C101.405785,162.935699 101.439369,163.198929 101.798340,163.232590 
M151.233505,160.807755 
	C151.360001,160.978699 151.486496,161.149643 151.612991,161.320587 
	C151.585861,161.081772 151.558731,160.842941 151.233505,160.807755 
M87.483963,165.588684 
	C87.483963,165.588684 87.416847,165.476730 87.483963,165.588684 
z"/>
<path fill="#F698FB" opacity="1.000000" stroke="none" 
	d="
M165.104965,67.650452 
	C165.760086,66.443947 166.431152,65.693939 167.130356,64.631989 
	C171.059097,64.700340 176.026871,61.628574 178.171677,67.672653 
	C178.578720,68.819695 178.901901,70.050926 178.960800,71.258102 
	C179.305344,78.318314 179.730392,85.382027 179.767960,92.446465 
	C179.785065,95.664207 178.746262,98.673180 174.635773,99.009300 
	C168.517929,99.509560 165.193390,97.154205 165.059265,91.568161 
	C164.871597,83.752754 165.081253,75.927818 165.104965,67.650452 
z"/>
<path fill="#F699FA" opacity="1.000000" stroke="none" 
	d="
M97.036568,70.544418 
	C97.226006,71.503021 97.384689,72.106537 97.805809,72.897163 
	C97.713142,79.092239 97.379089,85.101547 96.994865,91.107643 
	C96.772408,94.585144 96.101341,98.064331 92.071640,98.876167 
	C88.186356,99.658905 84.503822,99.116714 82.774673,93.790833 
	C82.858185,85.051567 83.144547,77.053001 83.430908,69.054436 
	C84.815025,65.517921 87.025291,63.267509 91.861671,64.227676 
	C94.009773,65.611458 95.491028,66.834732 96.972275,68.057999 
	C96.983452,68.768440 96.994637,69.478889 97.036568,70.544418 
z"/>
<path fill="#097B74" opacity="1.000000" stroke="none" 
	d="
M168.787445,39.446014 
	C171.274368,36.868835 173.311661,33.828587 176.585632,37.240959 
	C174.421890,42.036427 172.576385,46.659199 170.219040,51.004284 
	C169.569992,52.200603 167.392944,52.567932 166.749710,52.893806 
	C164.287643,46.864655 162.199905,41.752159 160.125076,36.671291 
	C164.272949,35.159039 164.986923,35.364700 168.787445,39.446014 
z"/>
<path fill="#06070B" opacity="1.000000" stroke="none" 
	d="
M124.839722,167.998657 
	C127.960472,168.219193 131.081009,168.605621 134.202042,168.609756 
	C136.879333,168.613312 139.557190,168.179611 142.620361,168.042633 
	C143.207886,169.107483 143.409821,170.068985 143.466797,170.340210 
	C140.903336,172.425339 138.532944,174.148422 136.404663,176.131378 
	C132.978195,179.323898 128.524078,178.744278 126.996536,174.430954 
	C125.184731,169.314987 120.718544,172.393036 117.371574,170.747589 
	C116.990219,170.503265 116.995392,170.026062 116.995392,170.026062 
	C116.997780,169.571457 117.000160,169.116837 117.002945,168.321274 
	C119.089546,167.757462 121.175751,167.534607 123.730408,167.524277 
	C124.380592,167.902100 124.594215,167.989380 124.839722,167.998657 
z"/>
<path fill="#087F77" opacity="1.000000" stroke="none" 
	d="
M98.895485,49.958939 
	C97.515419,50.813503 96.032959,52.623817 94.821182,52.457844 
	C92.582573,52.151226 90.502625,50.686192 88.356583,49.703751 
	C89.421913,48.093216 90.487236,46.482677 91.026848,45.666908 
	C90.332161,42.967018 88.515892,39.895260 89.307861,37.817844 
	C90.038795,35.900539 93.567955,35.050007 96.741241,33.225647 
	C97.564178,39.264297 98.232903,44.171284 98.871201,49.492420 
	C98.840775,49.906570 98.915199,50.023155 98.895485,49.958939 
z"/>
<path fill="#048072" opacity="1.000000" stroke="none" 
	d="
M124.148392,29.037472 
	C121.698349,22.807014 122.646606,21.031485 128.619217,21.313858 
	C128.853836,22.642252 129.101837,24.046562 129.521301,26.421616 
	C130.633667,24.959286 131.210907,23.928953 132.039581,23.174959 
	C133.268799,22.056551 134.676132,21.133928 136.007660,20.127966 
	C136.564041,21.636497 137.574829,23.148928 137.561905,24.652569 
	C137.545731,26.537188 136.689590,28.414595 135.643433,30.652740 
	C132.047211,32.015388 129.003510,33.020409 125.959824,34.025425 
	C125.959824,34.025425 126.002075,34.002007 125.999695,33.655357 
	C125.381004,31.884968 124.764694,30.461220 124.148392,29.037472 
z"/>
<path fill="#E7A8F4" opacity="1.000000" stroke="none" 
	d="
M97.821465,135.014175 
	C99.827805,140.110046 99.465919,144.315155 94.230774,147.563904 
	C91.486443,149.266922 89.371048,151.983444 86.549347,154.639801 
	C83.169037,151.054916 80.059692,148.024368 77.330330,144.683426 
	C76.608246,143.799545 76.414200,141.377441 77.071182,140.652115 
	C81.587982,135.665436 86.138092,130.429047 94.575760,131.987274 
	C95.103874,131.979919 95.116829,132.162125 94.844681,132.383698 
	C93.042503,133.741287 91.512489,134.877274 89.665161,135.867767 
	C83.354973,134.303040 82.846588,140.400665 79.152763,142.230957 
	C87.240387,151.688293 87.730446,151.694122 95.501701,142.892700 
	C96.232590,140.249527 96.597282,137.701477 97.175323,135.109192 
	C97.388680,135.064987 97.821465,135.014175 97.821465,135.014175 
z"/>
<path fill="#058274" opacity="1.000000" stroke="none" 
	d="
M155.837936,24.989239 
	C155.837936,24.989239 155.971466,25.430525 155.998901,26.065037 
	C156.365402,28.821829 156.704468,30.944111 157.043533,33.066395 
	C157.043533,33.066395 157.009583,33.005150 156.781372,33.172653 
	C156.382812,33.914989 156.212479,34.489822 156.042160,35.064655 
	C156.042160,35.064655 156.004105,35.001724 155.718079,35.032578 
	C155.005676,35.459419 154.579269,35.855404 154.152863,36.251385 
	C154.152863,36.251381 154.101501,36.234016 153.795197,36.173267 
	C152.998047,36.434479 152.507187,36.756439 152.016327,37.078400 
	C151.521820,37.341908 151.027313,37.605408 149.992126,37.574928 
	C144.023590,34.611546 146.115967,29.642971 146.379456,25.584314 
	C146.443817,24.593019 150.098343,23.834808 152.102188,22.969433 
	C152.534180,22.999743 152.966156,23.030054 153.844269,23.303083 
	C154.508728,23.770864 154.772125,23.911684 155.080566,23.968260 
	C155.080566,23.968260 155.010513,23.987438 155.093323,24.173582 
	C155.326523,24.643396 155.547119,24.853233 155.837936,24.989239 
z"/>
<path fill="#048072" opacity="1.000000" stroke="none" 
	d="
M105.954208,31.464188 
	C104.436287,29.115616 102.947136,27.179750 101.457985,25.243885 
	C101.789413,24.835642 102.120850,24.427399 102.452278,24.019156 
	C106.234566,24.019156 110.025040,23.882067 113.793854,24.107361 
	C114.847900,24.170372 116.057419,25.131420 116.752182,26.025211 
	C117.039734,26.395153 116.397751,28.128897 115.771324,28.451336 
	C113.641266,29.547731 112.736763,30.847269 112.479134,33.432598 
	C112.317833,35.051304 109.930534,36.448193 108.542038,37.944603 
	C107.689018,35.922035 106.835991,33.899464 105.954208,31.464188 
z"/>
<path fill="#E8F8FF" opacity="1.000000" stroke="none" 
	d="
M97.892929,134.593796 
	C97.821465,135.014175 97.388680,135.064987 96.937454,134.910400 
	C96.029755,133.891266 95.573288,133.026688 95.116829,132.162125 
	C95.116829,132.162125 95.103874,131.979919 95.015228,131.957901 
	C97.760048,126.557396 93.989517,122.310257 92.274055,117.849617 
	C89.245262,109.973984 91.213547,102.599022 98.530045,98.364388 
	C100.096619,97.457695 102.647110,98.250977 104.878326,98.596619 
	C104.058769,99.392357 103.105232,99.852608 102.025574,100.613129 
	C93.785706,102.403709 91.169388,109.846169 93.919716,115.651283 
	C95.353951,118.678505 97.122704,121.668732 97.842934,124.877121 
	C98.507126,127.835876 97.971527,131.063965 97.892929,134.593796 
z"/>
<path fill="#1F0E1F" opacity="1.000000" stroke="none" 
	d="
M83.190910,69.171036 
	C83.144547,77.053001 82.858185,85.051567 82.545334,93.479523 
	C81.881729,93.283913 81.244614,92.658905 80.205276,91.791840 
	C79.597336,91.278015 79.331505,91.092270 79.005562,90.992546 
	C79.005562,90.992546 79.000000,91.000305 79.011490,90.530350 
	C79.021477,84.044052 79.019981,78.027718 79.018486,72.011375 
	C79.018486,72.011375 78.998985,72.000862 79.303650,71.989334 
	C80.055077,71.639496 80.501846,71.301178 80.948608,70.962852 
	C81.616043,70.404449 82.283478,69.846046 83.190910,69.171036 
z"/>
<path fill="#010308" opacity="1.000000" stroke="none" 
	d="
M160.856110,52.700993 
	C159.660400,53.534916 158.317139,54.069393 156.859451,54.649403 
	C153.096680,50.531239 146.969696,46.082890 138.937683,44.780846 
	C135.915771,44.290974 136.322693,42.516880 137.949738,40.325714 
	C140.524918,40.812675 143.049850,41.625805 145.798050,43.092079 
	C146.641785,44.466251 147.262253,45.187275 147.882706,45.908295 
	C148.587799,45.270943 149.292908,44.633591 149.998016,43.996246 
	C153.568192,46.798016 157.138351,49.599781 160.856110,52.700993 
z"/>
<path fill="#ECEEEF" opacity="1.000000" stroke="none" 
	d="
M169.343430,169.254486 
	C169.772873,168.170380 170.569733,167.268448 171.189240,165.850891 
	C171.007660,164.890533 171.003418,164.445816 170.999176,164.001114 
	C171.745346,163.999100 172.491501,163.997086 173.657364,164.327652 
	C175.020676,164.709061 175.964310,164.757874 176.907928,164.806702 
	C176.932343,164.389816 176.956757,163.972916 176.975311,162.978348 
	C176.961227,162.223969 176.952972,162.047272 176.944702,161.870560 
	C178.630783,161.425888 180.316849,160.981216 182.002930,160.536545 
	C182.411240,163.473679 182.819550,166.410812 183.339569,170.151459 
	C178.137863,169.878632 173.924347,169.657639 169.343430,169.254486 
z"/>
<path fill="#050510" opacity="1.000000" stroke="none" 
	d="
M97.002869,67.678909 
	C95.491028,66.834732 94.009773,65.611458 92.275223,64.191467 
	C94.253006,60.544567 96.484100,57.094398 98.859222,53.327011 
	C100.442657,53.078964 101.882065,53.148140 103.594810,53.230450 
	C101.309952,58.129837 99.171707,62.714828 97.002869,67.678909 
z"/>
<path fill="#010308" opacity="1.000000" stroke="none" 
	d="
M131.599091,40.000690 
	C132.335434,42.845173 131.325821,44.146008 128.213867,44.084278 
	C125.827232,44.036930 123.242661,44.333996 121.072884,45.251026 
	C117.841408,46.616764 117.052582,45.028996 116.265617,42.242817 
	C118.398880,41.333256 120.802338,40.666431 123.401031,40.253143 
	C122.852760,40.978115 122.109253,41.449551 121.365746,41.920982 
	C121.604691,42.380493 121.843628,42.840000 122.082565,43.299507 
	C124.055611,42.199924 126.028664,41.100346 128.001709,40.000763 
	C129.067612,40.000767 130.133514,40.000767 131.599091,40.000690 
z"/>
<path fill="#349191" opacity="1.000000" stroke="none" 
	d="
M101.614395,117.187141 
	C101.945999,125.190193 101.941742,133.466354 101.561562,141.845490 
	C101.216606,133.785721 101.247574,125.622986 101.614395,117.187141 
z"/>
<path fill="#117A7D" opacity="1.000000" stroke="none" 
	d="
M151.845306,22.641590 
	C150.098343,23.834808 146.443817,24.593019 146.379456,25.584314 
	C146.115967,29.642971 144.023590,34.611546 149.690430,37.522083 
	C148.486816,37.763218 147.044205,37.763218 145.293365,37.763218 
	C145.293365,32.575695 145.293365,27.579716 145.293365,22.313749 
	C147.480042,22.313749 149.534241,22.313749 151.845306,22.641590 
z"/>
<path fill="#00061B" opacity="1.000000" stroke="none" 
	d="
M78.717308,72.300858 
	C79.019981,78.027718 79.021477,84.044052 79.015961,90.528305 
	C78.811340,84.860931 78.613739,78.725632 78.717308,72.300858 
z"/>
<path fill="#117A7D" opacity="1.000000" stroke="none" 
	d="
M126.186844,34.346676 
	C129.003510,33.020409 132.047211,32.015388 135.455780,30.999804 
	C133.865311,35.233471 130.383865,35.575363 126.186844,34.346676 
z"/>
<path fill="#000000" opacity="1.000000" stroke="none" 
	d="
M127.601837,40.000484 
	C126.028664,41.100346 124.055611,42.199924 122.082565,43.299507 
	C121.843628,42.840000 121.604691,42.380493 121.365746,41.920982 
	C122.109253,41.449551 122.852760,40.978115 123.800079,40.253090 
	C125.069916,39.999737 126.135941,39.999969 127.601837,40.000484 
z"/>
<path fill="#000000" opacity="1.000000" stroke="none" 
	d="
M149.761902,43.729500 
	C149.292908,44.633591 148.587799,45.270943 147.882706,45.908295 
	C147.262253,45.187275 146.641785,44.466251 146.011581,43.372536 
	C147.176483,43.154152 148.351151,43.308453 149.761902,43.729500 
z"/>
<path fill="#349191" opacity="1.000000" stroke="none" 
	d="
M101.955284,102.336433 
	C102.307243,104.795341 102.481522,107.574829 102.405724,110.647522 
	C102.029633,108.179489 101.903618,105.418259 101.955284,102.336433 
z"/>
<path fill="#111419" opacity="1.000000" stroke="none" 
	d="
M116.592552,170.019531 
	C116.995392,170.026062 116.990219,170.503265 116.984085,170.741577 
	C115.198647,171.206909 113.419334,171.433929 111.640015,171.660965 
	C111.586853,171.237244 111.533684,170.813522 111.480515,170.389816 
	C113.050247,170.264206 114.619980,170.138596 116.592552,170.019531 
z"/>
<path fill="#F0F6F6" opacity="1.000000" stroke="none" 
	d="
M96.516518,161.937515 
	C94.182968,162.144897 91.404602,162.400940 88.323364,162.407562 
	C90.704231,162.100830 93.387962,162.043503 96.516518,161.937515 
z"/>
<path fill="#117A7D" opacity="1.000000" stroke="none" 
	d="
M157.351379,32.840691 
	C156.704468,30.944111 156.365402,28.821829 156.030396,26.293396 
	C156.576065,28.129826 157.117645,30.372408 157.351379,32.840691 
z"/>
<path fill="#E7EAE9" opacity="1.000000" stroke="none" 
	d="
M101.322891,168.889557 
	C101.645935,167.691147 102.315086,166.550156 102.984230,165.409164 
	C103.411789,165.699326 103.839355,165.989471 104.266914,166.279633 
	C103.899902,166.883530 103.532883,167.487442 103.095078,168.369019 
	C102.572525,168.746780 102.120758,168.846863 101.322891,168.889557 
z"/>
<path fill="#117A7D" opacity="1.000000" stroke="none" 
	d="
M124.092163,29.390514 
	C124.764694,30.461220 125.381004,31.884968 125.985550,33.675079 
	C125.327835,32.608814 124.681892,31.176184 124.092163,29.390514 
z"/>
<path fill="#F0F6F6" opacity="1.000000" stroke="none" 
	d="
M82.610046,164.041550 
	C82.836166,165.206757 82.724342,166.543167 82.272964,167.917999 
	C82.046310,166.708542 82.159203,165.460648 82.610046,164.041550 
z"/>
<path fill="#DEE9E9" opacity="1.000000" stroke="none" 
	d="
M176.512863,161.918671 
	C176.952972,162.047272 176.961227,162.223969 176.974030,162.665070 
	C174.855652,162.824539 172.732727,162.719620 170.308044,162.372467 
	C172.031189,162.075745 174.056107,162.021255 176.512863,161.918671 
z"/>
<path fill="#F0F6F6" opacity="1.000000" stroke="none" 
	d="
M81.696579,168.037994 
	C81.960907,168.617813 81.970306,169.303131 81.956268,170.330566 
	C81.769112,169.829620 81.605385,168.986557 81.696579,168.037994 
z"/>
<path fill="#F0F6F6" opacity="1.000000" stroke="none" 
	d="
M84.645813,161.080933 
	C84.581871,161.739380 84.159775,162.326309 83.445312,162.958435 
	C83.531174,162.338898 83.909409,161.674164 84.645813,161.080933 
z"/>
<path fill="#00061B" opacity="1.000000" stroke="none" 
	d="
M80.658470,70.999939 
	C80.501846,71.301178 80.055077,71.639496 79.310989,71.998482 
	C79.465233,71.691780 79.916786,71.364410 80.658470,70.999939 
z"/>
<path fill="#117A7D" opacity="1.000000" stroke="none" 
	d="
M152.320404,37.037598 
	C152.507187,36.756439 152.998047,36.434479 153.801407,36.146877 
	C153.617432,36.453087 153.120972,36.724941 152.320404,37.037598 
z"/>
<path fill="#DEE9E9" opacity="1.000000" stroke="none" 
	d="
M162.971024,158.704254 
	C162.512070,158.871582 161.957794,158.771576 161.214752,158.456268 
	C161.025986,158.240952 161.490891,158.102371 161.701050,157.983215 
	C162.232727,158.055008 162.554214,158.245972 162.971024,158.704254 
z"/>
<path fill="#117A7D" opacity="1.000000" stroke="none" 
	d="
M154.463684,36.275200 
	C154.579269,35.855404 155.005676,35.459419 155.748932,35.052612 
	C155.635361,35.460865 155.204926,35.879936 154.463684,36.275200 
z"/>
<path fill="#117A7D" opacity="1.000000" stroke="none" 
	d="
M156.308960,34.912048 
	C156.212479,34.489822 156.382812,33.914989 156.815948,33.178116 
	C156.911087,33.597195 156.743408,34.178322 156.308960,34.912048 
z"/>
<path fill="#117A7D" opacity="1.000000" stroke="none" 
	d="
M155.829041,24.739981 
	C155.547119,24.853233 155.326523,24.643396 155.104279,24.138952 
	C155.381073,23.990583 155.643661,24.181431 155.829041,24.739981 
z"/>
<path fill="#DEE9E9" opacity="1.000000" stroke="none" 
	d="
M164.993988,159.708206 
	C164.756775,159.953156 164.482193,159.834610 164.128235,159.412598 
	C164.302444,159.301132 164.605026,159.379669 164.993988,159.708206 
z"/>
<path fill="#117A7D" opacity="1.000000" stroke="none" 
	d="
M154.991547,23.736588 
	C154.772125,23.911684 154.508728,23.770864 154.164383,23.357872 
	C154.410980,23.063377 154.699020,23.175034 154.991547,23.736588 
z"/>
<path fill="#00061B" opacity="1.000000" stroke="none" 
	d="
M79.113670,91.217392 
	C79.331505,91.092270 79.597336,91.278015 79.922821,91.765427 
	C79.702492,91.902702 79.428894,91.723099 79.113670,91.217392 
z"/>
<path fill="#D69DEB" opacity="1.000000" stroke="none" 
	d="
M123.570267,148.769958 
	C116.680138,150.135849 116.682648,150.135773 116.482635,143.540970 
	C116.447418,142.379745 116.182968,141.186386 116.369751,140.065430 
	C116.789047,137.548935 114.208641,133.635712 119.412582,133.217575 
	C124.363358,132.819778 128.836243,136.080963 129.149216,140.400162 
	C129.440262,144.416763 127.305466,146.937210 123.570267,148.769958 
z"/>
<path fill="#DBA0EE" opacity="1.000000" stroke="none" 
	d="
M145.849838,124.618118 
	C144.621613,123.831657 143.139160,123.076965 143.097778,122.250153 
	C142.867706,117.653511 142.987396,113.039375 142.987396,108.541954 
	C150.360275,107.534531 154.315720,109.947533 155.110306,115.439247 
	C155.935120,121.139824 153.644653,123.515175 145.849838,124.618118 
z"/>
<path fill="#DFA3F4" opacity="1.000000" stroke="none" 
	d="
M115.573914,124.005066 
	C113.648613,124.023079 112.160614,124.023079 110.200768,124.023079 
	C110.200768,119.084557 110.200768,114.379463 110.200768,108.918114 
	C111.959160,108.918114 113.709229,108.896454 115.458290,108.929276 
	C116.115547,108.941597 117.038055,108.840477 117.370697,109.211502 
	C118.063980,109.984764 119.087540,111.267517 118.848068,111.938774 
	C117.447914,115.863670 126.328690,122.271126 115.573914,124.005066 
z"/>
<path fill="#E19FF1" opacity="1.000000" stroke="none" 
	d="
M137.083099,117.979279 
	C136.406723,121.256828 136.232071,124.455856 134.892975,127.054924 
	C133.148209,130.441345 127.840027,130.518356 126.630745,127.155632 
	C125.385155,123.691948 125.493134,119.717621 125.238876,115.951202 
	C125.206673,115.474190 126.901520,114.308159 127.220749,114.487244 
	C128.175613,115.022858 129.400421,115.997658 129.518021,116.927681 
	C129.832901,119.417778 129.625351,121.973923 129.625351,125.094154 
	C135.707306,123.123390 129.451920,114.428154 137.225662,114.781265 
	C137.171890,115.747681 137.119415,116.690804 137.083099,117.979279 
z"/>
<path fill="#ED9EF7" opacity="1.000000" stroke="none" 
	d="
M146.777496,136.577972 
	C144.738678,140.600769 142.691055,144.230438 140.251846,148.554199 
	C138.584366,148.523453 138.823898,148.466080 137.589661,143.313034 
	C136.960251,140.685211 135.291641,138.306290 133.959030,135.536987 
	C137.828598,133.504105 139.267975,135.571381 139.661209,138.053726 
	C142.295395,137.361069 144.532043,136.772964 146.777496,136.577972 
z"/>
<path fill="#F0F6F6" opacity="1.000000" stroke="none" 
	d="
M126.993164,163.017273 
	C128.589417,158.985703 125.124306,158.478745 122.264542,156.798096 
	C120.083923,156.320999 118.523880,156.163864 116.963837,156.006744 
	C112.756668,158.158478 109.009682,162.007660 103.305443,159.394089 
	C107.453583,157.739594 111.803658,156.030884 116.307526,154.983582 
	C123.187469,153.383743 127.351082,155.882767 131.182098,163.534729 
	C130.155838,163.917145 129.031143,163.958450 127.461777,163.755783 
	C127.017105,163.511810 126.993164,163.017273 126.993164,163.017273 
z"/>
<path fill="#DEE9E9" opacity="1.000000" stroke="none" 
	d="
M153.025192,154.576965 
	C149.166718,158.487854 144.830948,157.755875 140.188858,155.171326 
	C144.224060,154.679123 148.490997,154.489319 153.025192,154.576965 
z"/>
<path fill="#000000" opacity="1.000000" stroke="none" 
	d="
M162.901215,129.982986 
	C162.606201,128.339279 162.317291,127.092812 161.635590,124.151695 
	C164.158127,125.450081 166.130432,125.856750 166.854050,127.032166 
	C167.422806,127.956017 166.449707,129.829086 166.161530,131.280502 
	C165.076797,130.980408 163.992065,130.680313 162.901215,129.982986 
z"/>
<path fill="#DEE9E9" opacity="1.000000" stroke="none" 
	d="
M156.014252,160.987946 
	C156.038193,159.485107 156.062149,157.982269 156.117920,156.144104 
	C157.335236,156.308350 158.520721,156.807938 159.867950,157.588226 
	C158.925034,158.887833 157.820358,159.906723 156.357849,160.962799 
	C156.000000,161.000000 156.014252,160.987946 156.014252,160.987946 
z"/>
<path fill="#DEE9E9" opacity="1.000000" stroke="none" 
	d="
M155.986755,155.581177 
	C155.581573,155.729034 154.994949,155.625839 154.206970,155.290710 
	C154.605530,155.149231 155.205399,155.239670 155.986755,155.581177 
z"/>
<path fill="#050510" opacity="1.000000" stroke="none" 
	d="
M106.018631,52.014351 
	C105.915848,52.041351 105.813072,52.068352 105.855072,52.047401 
	C105.999863,51.999451 106.018631,52.014351 106.018631,52.014351 
z"/>
<path fill="#050510" opacity="1.000000" stroke="none" 
	d="
M105.992340,51.990005 
	C106.083618,51.952377 106.182411,51.924198 106.149918,51.955185 
	C106.018631,52.014351 105.999863,51.999451 105.992340,51.990005 
z"/>
<path fill="#010204" opacity="1.000000" stroke="none" 
	d="
M123.413239,81.271935 
	C121.500298,88.209549 115.742134,92.008865 110.550377,89.890205 
	C106.176765,88.105431 103.796921,74.828537 107.216393,71.290276 
	C109.791893,68.625305 117.715546,67.863289 121.535324,70.218040 
	C124.892288,72.287483 125.514214,75.450378 124.111603,79.073593 
	C123.880203,79.671349 123.817207,80.334297 123.413239,81.271935 
z"/>
<path fill="#010204" opacity="1.000000" stroke="none" 
	d="
M138.730865,80.664925 
	C138.563263,72.535484 138.679382,69.209198 148.467377,68.853256 
	C153.053635,68.686478 154.877884,71.843239 154.688400,74.685921 
	C154.388702,79.182213 152.781631,83.766563 150.877930,87.924530 
	C149.393143,91.167557 143.362656,90.943153 141.430252,87.801498 
	C140.188538,85.782753 139.614136,83.353516 138.730865,80.664925 
z"/>
<path fill="#E7EAE9" opacity="1.000000" stroke="none" 
	d="
M109.785637,164.562988 
	C110.120628,163.496262 110.750595,162.310440 111.380569,161.124619 
	C111.878639,161.498245 112.376709,161.871872 112.874779,162.245499 
	C111.943398,162.978287 111.012009,163.711090 109.785637,164.562988 
z"/>
<path fill="#E7EAE9" opacity="1.000000" stroke="none" 
	d="
M117.031647,156.370010 
	C118.523880,156.163864 120.083923,156.320999 121.929718,156.744293 
	C120.510132,156.918060 118.804802,156.825668 117.031647,156.370010 
z"/>
<path fill="#E7EAE9" opacity="1.000000" stroke="none" 
	d="
M126.728882,162.882233 
	C126.993164,163.017273 127.017105,163.511810 127.039299,163.758484 
	C123.462021,166.341797 125.507736,162.273911 124.611588,161.490387 
	C125.229256,161.909317 125.846924,162.328247 126.728882,162.882233 
z"/>
<path fill="#ECEEEF" opacity="1.000000" stroke="none" 
	d="
M141.656860,161.598389 
	C141.381195,161.094864 141.371613,160.494675 141.362045,159.894485 
	C141.949051,159.895477 142.536041,159.896469 143.123047,159.897476 
	C142.723022,160.432236 142.322983,160.966995 141.656860,161.598389 
z"/>
<path fill="#DEE9E9" opacity="1.000000" stroke="none" 
	d="
M163.552490,162.729736 
	C164.774445,162.920639 165.761749,163.302353 166.749054,163.684067 
	C166.553375,164.070297 166.357697,164.456528 166.162033,164.842758 
	C165.213974,164.202026 164.265915,163.561279 163.552490,162.729736 
z"/>
<path fill="#ECEEEF" opacity="1.000000" stroke="none" 
	d="
M156.006516,160.992905 
	C155.465012,161.596375 154.917007,162.206940 154.369003,162.817505 
	C154.075592,162.534836 153.782196,162.252151 153.488785,161.969482 
	C154.101898,161.650116 154.715027,161.330750 155.671204,160.999664 
	C156.014252,160.987946 156.000000,161.000000 156.006516,160.992905 
z"/>
<path fill="#DEE9E9" opacity="1.000000" stroke="none" 
	d="
M176.618683,164.706604 
	C175.964310,164.757874 175.020676,164.709061 174.030457,164.327820 
	C174.765701,164.199097 175.547562,164.402802 176.618683,164.706604 
z"/>
<path fill="#DEE9E9" opacity="1.000000" stroke="none" 
	d="
M170.679916,163.994766 
	C171.003418,164.445816 171.007660,164.890533 171.007202,165.668793 
	C170.239594,165.630051 169.476700,165.257736 168.713806,164.885422 
	C169.262756,164.586411 169.811707,164.287415 170.679916,163.994766 
z"/>
<path fill="#E7EAE9" opacity="1.000000" stroke="none" 
	d="
M122.747360,160.865753 
	C122.410538,161.074615 122.042976,161.047531 121.675407,161.020447 
	C121.753090,160.763901 121.830772,160.507370 121.908455,160.250824 
	C122.177841,160.377151 122.447227,160.503464 122.747360,160.865753 
z"/>
<path fill="#ECEEEF" opacity="1.000000" stroke="none" 
	d="
M147.327820,160.894684 
	C147.244858,160.594223 147.337585,160.204559 147.557877,160.109009 
	C147.723312,160.037247 148.052643,160.343369 148.309021,160.481262 
	C148.058777,160.631439 147.808533,160.781616 147.327820,160.894684 
z"/>
<path fill="#E7EAE9" opacity="1.000000" stroke="none" 
	d="
M96.217316,165.010834 
	C96.399078,164.889832 96.583321,164.948746 96.767563,165.007660 
	C96.584969,165.068680 96.402374,165.129715 96.217316,165.010834 
z"/>
<path fill="#E7EAE9" opacity="1.000000" stroke="none" 
	d="
M101.635651,163.347382 
	C101.439369,163.198929 101.405785,162.935699 101.372208,162.672455 
	C101.514252,162.859161 101.656296,163.045868 101.635651,163.347382 
z"/>
<path fill="#ECEEEF" opacity="1.000000" stroke="none" 
	d="
M151.382553,160.705933 
	C151.558731,160.842941 151.585861,161.081772 151.612991,161.320587 
	C151.486496,161.149643 151.360001,160.978699 151.382553,160.705933 
z"/>
<path fill="#ECEEEF" opacity="1.000000" stroke="none" 
	d="
M157.894989,163.921661 
	C158.053635,163.932281 158.212265,163.942917 158.184937,163.983932 
	C157.998947,164.014328 157.894989,163.921677 157.894989,163.921661 
z"/>
<path fill="#ECEEEF" opacity="1.000000" stroke="none" 
	d="
M158.044525,164.066956 
	C157.939224,164.110382 157.788345,164.101151 157.766235,164.006805 
	C157.894989,163.921677 157.998947,164.014328 158.044525,164.066956 
z"/>
<path fill="#F0F6F6" opacity="1.000000" stroke="none" 
	d="
M87.450409,165.532715 
	C87.416847,165.476730 87.483963,165.588684 87.450409,165.532715 
z"/>
<path fill="#111419" opacity="1.000000" stroke="none" 
	d="
M124.833832,167.757782 
	C124.594215,167.989380 124.380592,167.902100 124.115425,167.581940 
	C124.031998,167.427078 124.459915,167.206619 124.459915,167.206619 
	C124.459915,167.206619 124.827942,167.516922 124.833832,167.757782 
z"/>
<path fill="#F7EFF7" opacity="1.000000" stroke="none" 
	d="
M95.135513,142.987808 
	C87.730446,151.694122 87.240387,151.688293 79.152763,142.230957 
	C82.846588,140.400665 83.354973,134.303040 89.815727,136.162323 
	C91.900902,138.730835 93.518204,140.859314 95.135513,142.987808 
z"/>
<path fill="#F699FA" opacity="1.000000" stroke="none" 
	d="
M95.501701,142.892700 
	C93.518204,140.859314 91.900902,138.730835 90.133026,136.307800 
	C91.512489,134.877274 93.042503,133.741287 94.844681,132.383698 
	C95.573288,133.026688 96.029755,133.891266 96.724098,134.954620 
	C96.597282,137.701477 96.232590,140.249527 95.501701,142.892700 
z"/>
</svg>